<svg id="Lag_1" data-name="Lag 1" xmlns="http://www.w3.org/2000/svg" width="417" height="291" viewBox="0 0 417 291"><defs><style>.cls-1{fill:#009300;}.cls-2{fill:#00af00;}.cls-3{fill:#333;}.cls-4{fill:#ccc;}</style></defs><title>logo</title><path class="cls-1" d="M3,110a428.47,428.47,0,0,0,37,53,428.42,428.42,0,0,0,33,36,131.29,131.29,0,0,0,46,10c13.23.4,22.76-1.42,32-3,16.93-2.9,41.39-6.46,73-9,.95-6.75,4.73-38.91-17-69-20.16-27.92-48.76-35.35-56-37a250,250,0,0,0-98,2A246,246,0,0,0,3,110Z"/><path class="cls-2" d="M217.43,3.19a421.83,421.83,0,0,0-15.82,52.33,375.28,375.28,0,0,0-6.93,39.19,68.81,68.81,0,0,0,15.89,28c6.15,6.4,11.92,9.62,17.4,12.86a410.59,410.59,0,0,1,41,27.92c4.75-4,27-23.61,35.67-53.65,8-27.88-1.11-46.08-3.55-50.54a123.52,123.52,0,0,0-48.7-44.17A137.49,137.49,0,0,0,217.43,3.19Z"/><ellipse class="cls-3" cx="287.93" cy="195.46" rx="128.5" ry="93.22" transform="translate(-22.03 37.25) rotate(-7.13)"/><ellipse cx="200.5" cy="213" rx="31.5" ry="35"/><path class="cls-4" d="M196,156a77.48,77.48,0,0,1,16.24-14.62,84.17,84.17,0,0,1,17.6-8.88A108.61,108.61,0,0,1,253,126.34,186.17,186.17,0,0,0,225,148.49q-3.63,3.49-6.88,7a38.34,38.34,0,0,0-5.67-1.09A39.58,39.58,0,0,0,196,156Z"/></svg>
